<svg width="136" height="42" viewBox="0 0 136 42" fill="none" xmlns="http://www.w3.org/2000/svg">
<path d="M41.8 23.16C41.68 17.52 46.56 12.84 52.2 12.92C55.84 12.92 58.76 14.64 60.48 17.48L57.52 19.8C56.12 17.8 54.36 16.8 52.24 16.8C48.72 16.8 46.08 19.6 46.08 23.16C46.08 26.76 48.72 29.56 52.24 29.56C54.32 29.56 56.08 28.56 57.52 26.6L60.48 28.88C58.72 31.72 55.76 33.44 52.2 33.44C46.4 33.44 41.8 28.88 41.8 23.16ZM78.3103 21.12V33H74.3903V30.8C72.9503 32.52 70.7903 33.44 68.1103 33.44C63.9903 33.44 61.2703 31.16 61.2703 27.76C61.2703 24.36 64.0703 22.16 68.5103 22.16H74.0703V20.88C74.0703 18.16 72.5503 16.68 69.8703 16.68C67.6703 16.68 66.0703 17.64 64.4303 19.6L61.9903 17.12C63.9503 14.28 66.8703 12.92 70.2703 12.92C75.1103 12.92 78.3103 15.84 78.3103 21.12ZM74.0703 25.56V25.2H69.0303C66.7903 25.2 65.5503 26 65.5503 27.6C65.5503 29.24 66.9503 30.2 68.9903 30.2C71.8303 30.2 74.0703 28.24 74.0703 25.56ZM92.9956 13.36V17.08H91.7156C88.3956 17.08 85.9556 19.04 85.9556 22.52V33H81.7556V13.36H85.6756V15.92C87.0756 14.16 89.1556 13.16 91.3956 13.16C91.9956 13.16 92.5156 13.24 92.9956 13.36ZM108.885 3H113.125V33H109.205V30.2C107.765 32.24 105.245 33.44 102.325 33.44C96.805 33.44 92.725 29 92.725 23.2C92.605 17.48 96.885 12.8 102.325 12.92C105.045 12.92 107.405 13.96 108.885 15.76V3ZM108.965 23.2C108.965 18.96 106.085 16.76 103.045 16.76C99.685 16.76 97.005 19.4 97.005 23.16C97.005 26.92 99.565 29.6 103.045 29.6C106.125 29.6 108.965 27.48 108.965 23.2ZM130.479 13.36H134.959L125.399 35.24C123.759 38.96 121.559 40.64 118.199 40.64C117.119 40.64 116.039 40.52 114.959 40.24V36.68C116.199 36.8 116.959 36.84 117.279 36.84C119.239 36.84 120.599 36.16 121.559 33.96L122.359 32.12L114.519 13.36H119.039L124.679 27.64L130.479 13.36Z" fill="#FF2D55"/>
<path d="M3.66435e-06 26.2143C3.35646e-06 19.1705 6.27201 14.4287 12.7377 14.4286L17.8095 14.4286C18.9667 14.4286 19.9048 15.3666 19.9048 16.5238C19.9048 17.681 18.9667 18.619 17.8095 18.619L12.7377 18.619L12.5198 18.6216C7.9607 18.724 4.19048 22.0259 4.19048 26.2143C4.19048 30.4692 8.08147 33.8094 12.7377 33.8095L27.7619 33.8095C28.9191 33.8095 29.8571 34.7476 29.8571 35.9048C29.8571 37.0619 28.9191 38 27.7619 38L12.7377 38L12.4349 37.9964C6.0776 37.8511 3.96744e-06 33.1481 3.66435e-06 26.2143Z" fill="#FF2D55"/>
<path d="M29.8571 16.7857C29.8571 23.8295 23.5851 28.5713 17.1195 28.5714L12.0476 28.5714C10.8904 28.5714 9.95238 27.6334 9.95238 26.4762C9.95238 25.319 10.8904 24.3809 12.0476 24.3809L17.1195 24.381L17.3374 24.3784C21.8964 24.276 25.6667 20.974 25.6667 16.7857C25.6667 12.5308 21.7757 9.19059 17.1195 9.19047L2.09524 9.19047C0.938069 9.19047 -1.40147e-06 8.2524 -1.35089e-06 7.09523C-1.30031e-06 5.93806 0.938069 5 2.09524 5L17.1195 5L17.4223 5.00358C23.7795 5.14893 29.8571 9.85194 29.8571 16.7857Z" fill="#FF2D55"/>
</svg>
